<?xml version="1.0" encoding="UTF-8"?>
<svg xmlns="http://www.w3.org/2000/svg" viewBox="0 0 1200 760" role="img" aria-labelledby="title desc">
<title id="title">DIBL vs Ion/Ioff tolerance window</title>
<desc id="desc">Performance-space tolerance window around the nominal TLMG VCAT, with Core ±10 percent and Outer ±20 percent bands.</desc>
<rect width="100%" height="100%" fill="white"/>
<style>
text{font-family:Arial,Helvetica,sans-serif;fill:#111827}
.axis{stroke:#111827;stroke-width:1.5}
.grid{stroke:#e5e7eb;stroke-width:1}
.tick{font-size:18px}
.label{font-size:20px}
.ptlabel{font-size:11px;fill:#374151}
.legend{font-size:16px}
.bandlabel{font-size:23px;font-weight:700}
</style>
<text x="600" y="35" text-anchor="middle" font-size="28" font-weight="700">DIBL vs Ion/Ioff — Nominal-Centered Performance Tolerance</text><line class="grid" x1="161.87500000000006" y1="65" x2="161.87500000000006" y2="680"/><text class="tick" x="161.87500000000006" y="712" text-anchor="middle">1.8</text><line class="grid" x1="340.2083333333335" y1="65" x2="340.2083333333335" y2="680"/><text class="tick" x="340.2083333333335" y="712" text-anchor="middle">2.2</text><line class="grid" x1="518.5416666666667" y1="65" x2="518.5416666666667" y2="680"/><text class="tick" x="518.5416666666667" y="712" text-anchor="middle">2.6</text><line class="grid" x1="696.8750000000001" y1="65" x2="696.8750000000001" y2="680"/><text class="tick" x="696.8750000000001" y="712" text-anchor="middle">3.0</text><line class="grid" x1="875.2083333333334" y1="65" x2="875.2083333333334" y2="680"/><text class="tick" x="875.2083333333334" y="712" text-anchor="middle">3.4</text><line class="grid" x1="1053.5416666666667" y1="65" x2="1053.5416666666667" y2="680"/><text class="tick" x="1053.5416666666667" y="712" text-anchor="middle">3.8</text><line class="grid" x1="95" y1="680" x2="1165" y2="680"/><text class="tick" x="80" y="686" text-anchor="end">0.2</text><line class="grid" x1="95" y1="579.1803278688525" x2="1165" y2="579.1803278688525"/><text class="tick" x="80" y="585.1803278688525" text-anchor="end">0.4</text><line class="grid" x1="95" y1="478.360655737705" x2="1165" y2="478.360655737705"/><text class="tick" x="80" y="484.360655737705" text-anchor="end">0.6</text><line class="grid" x1="95" y1="377.5409836065574" x2="1165" y2="377.5409836065574"/><text class="tick" x="80" y="383.5409836065574" text-anchor="end">0.8</text><line class="grid" x1="95" y1="276.7213114754099" x2="1165" y2="276.7213114754099"/><text class="tick" x="80" y="282.7213114754099" text-anchor="end">1.0</text><line class="grid" x1="95" y1="175.90163934426226" x2="1165" y2="175.90163934426226"/><text class="tick" x="80" y="181.90163934426226" text-anchor="end">1.2</text><line class="grid" x1="95" y1="75.08196721311481" x2="1165" y2="75.08196721311481"/><text class="tick" x="80" y="81.08196721311481" text-anchor="end">1.4</text><line class="axis" x1="95" y1="680" x2="1165" y2="680"/>
<line class="axis" x1="95" y1="65" x2="95" y2="680"/>
<text class="label" x="630" y="742" text-anchor="middle">DIBL (mV/V)</text>
<text class="label" transform="translate(28 372.5) rotate(-90)" text-anchor="middle">Ion / Ioff (×10¹⁰)</text><rect x="117.27670440504517" y="90.61250946314658" width="378.9508522025226" height="230.06905422266692" fill="none" stroke="#123247" stroke-width="4" stroke-dasharray="11 7"/>
<rect x="212.01441745567575" y="148.12977301881324" width="189.47542610126135" height="115.03452711133355" fill="none" stroke="#123247" stroke-width="4"/>
<text class="bandlabel" x="224.01441745567575" y="136.12977301881324">Core Stability Band (±10%)</text>
<text class="bandlabel" x="207.27670440504517" y="358.6815636858135">Outer Stability Band (±20%)</text><circle cx="461.4" cy="271.4" r="4.7" fill="#2a77b5" opacity="0.95"/><text class="ptlabel" x="467.4" y="265.4" text-anchor="start">13/30/17 nm</text><circle cx="382.7" cy="237.5" r="4.7" fill="#2a77b5" opacity="0.95"/><text class="ptlabel" x="388.7" y="231.5" text-anchor="start">13/31/16 nm</text><circle cx="327.3" cy="207.5" r="4.7" fill="#2a77b5" opacity="0.95"/><text class="ptlabel" x="333.3" y="201.5" text-anchor="start">13/32/15 nm</text><circle cx="286.3" cy="185.3" r="4.7" fill="#2a77b5" opacity="0.95"/><text class="ptlabel" x="292.3" y="179.3" text-anchor="start">13/33/14 nm</text><circle cx="251.8" cy="164.8" r="4.7" fill="#2a77b5" opacity="0.95"/><text class="ptlabel" x="257.8" y="158.8" text-anchor="start">13/34/13 nm</text><circle cx="203.2" cy="135.1" r="4.7" fill="#2a77b5" opacity="0.95"/><text class="ptlabel" x="209.2" y="129.1" text-anchor="start">13/35/12 nm</text><circle cx="167.0" cy="108.8" r="4.7" fill="#2a77b5" opacity="0.95"/><text class="ptlabel" x="173.0" y="102.8" text-anchor="start">13/36/11 nm</text><circle cx="508.9" cy="293.4" r="4.7" fill="#2a77b5" opacity="0.95"/><text class="ptlabel" x="514.9" y="287.4" text-anchor="start">14/29/17 nm</text><circle cx="362.7" cy="228.0" r="4.7" fill="#2a77b5" opacity="0.95"/><text class="ptlabel" x="368.7" y="222.0" text-anchor="start">14/31/15 nm</text><circle cx="317.6" cy="205.3" r="4.7" fill="#2a77b5" opacity="0.95"/><text class="ptlabel" x="323.6" y="199.3" text-anchor="start">14/32/14 nm</text><circle cx="280.4" cy="184.4" r="4.7" fill="#2a77b5" opacity="0.95"/><text class="ptlabel" x="286.4" y="178.4" text-anchor="start">14/33/13 nm</text><circle cx="188.3" cy="127.1" r="4.7" fill="#2a77b5" opacity="0.95"/><text class="ptlabel" x="194.3" y="121.1" text-anchor="start">14/35/11 nm</text><circle cx="562.0" cy="317.2" r="4.7" fill="#2a77b5" opacity="0.95"/><text class="ptlabel" x="568.0" y="311.2" text-anchor="start">15/28/17 nm</text><circle cx="466.4" cy="281.7" r="4.7" fill="#2a77b5" opacity="0.95"/><text class="ptlabel" x="472.4" y="275.7" text-anchor="start">15/29/16 nm</text><circle cx="399.0" cy="250.3" r="4.7" fill="#2a77b5" opacity="0.95"/><text class="ptlabel" x="405.0" y="244.3" text-anchor="start">15/30/15 nm</text><circle cx="349.0" cy="227.1" r="4.7" fill="#2a77b5" opacity="0.95"/><text class="ptlabel" x="355.0" y="221.1" text-anchor="start">15/31/14 nm</text><circle cx="306.8" cy="205.6" r="4.7" fill="#2a77b5" opacity="0.95"/><text class="ptlabel" x="312.8" y="199.6" text-anchor="start">15/32/13 nm</text><circle cx="248.2" cy="174.6" r="4.7" fill="#2a77b5" opacity="0.95"/><text class="ptlabel" x="254.2" y="168.6" text-anchor="start">15/33/12 nm</text><circle cx="204.3" cy="147.0" r="4.7" fill="#2a77b5" opacity="0.95"/><text class="ptlabel" x="210.3" y="141.0" text-anchor="start">15/34/11 nm</text><circle cx="667.5" cy="350.1" r="4.7" fill="#2a77b5" opacity="0.95"/><text class="ptlabel" x="673.5" y="344.1" text-anchor="start">16/27/17 nm</text><circle cx="482.5" cy="281.1" r="4.7" fill="#2a77b5" opacity="0.95"/><text class="ptlabel" x="488.5" y="275.1" text-anchor="start">16/29/15 nm</text><circle cx="426.5" cy="257.1" r="4.7" fill="#2a77b5" opacity="0.95"/><text class="ptlabel" x="432.5" y="251.1" text-anchor="start">16/30/14 nm</text><circle cx="379.8" cy="234.9" r="4.7" fill="#2a77b5" opacity="0.95"/><text class="ptlabel" x="385.8" y="228.9" text-anchor="start">16/31/13 nm</text><circle cx="266.1" cy="174.4" r="4.7" fill="#2a77b5" opacity="0.95"/><text class="ptlabel" x="272.1" y="168.4" text-anchor="start">16/33/11 nm</text><circle cx="740.1" cy="386.9" r="4.7" fill="#2a77b5" opacity="0.95"/><text class="ptlabel" x="746.1" y="380.9" text-anchor="start">17/26/17 nm</text><circle cx="618.7" cy="349.2" r="4.7" fill="#2a77b5" opacity="0.95"/><text class="ptlabel" x="624.7" y="343.2" text-anchor="start">17/27/16 nm</text><circle cx="533.1" cy="315.8" r="4.7" fill="#2a77b5" opacity="0.95"/><text class="ptlabel" x="539.1" y="309.8" text-anchor="start">17/28/15 nm</text><circle cx="471.1" cy="291.0" r="4.7" fill="#2a77b5" opacity="0.95"/><text class="ptlabel" x="477.1" y="285.0" text-anchor="start">17/29/14 nm</text><circle cx="418.6" cy="268.0" r="4.7" fill="#2a77b5" opacity="0.95"/><text class="ptlabel" x="424.6" y="262.0" text-anchor="start">17/30/13 nm</text><circle cx="346.3" cy="234.8" r="4.7" fill="#2a77b5" opacity="0.95"/><text class="ptlabel" x="352.3" y="228.8" text-anchor="start">17/31/12 nm</text><circle cx="291.8" cy="205.4" r="4.7" fill="#2a77b5" opacity="0.95"/><text class="ptlabel" x="297.8" y="199.4" text-anchor="start">17/32/11 nm</text><circle cx="520.5" cy="295.5" r="4.7" fill="#2a77b5" opacity="0.82"/><text class="ptlabel" x="526.5" y="289.5" text-anchor="start">13/29/18 nm</text><circle cx="572.6" cy="317.9" r="4.7" fill="#2a77b5" opacity="0.82"/><text class="ptlabel" x="578.6" y="311.9" text-anchor="start">14/28/18 nm</text><circle cx="634.0" cy="342.4" r="4.7" fill="#2a77b5" opacity="0.82"/><text class="ptlabel" x="640.0" y="336.4" text-anchor="start">15/27/18 nm</text><circle cx="748.6" cy="375.9" r="4.7" fill="#2a77b5" opacity="0.82"/><text class="ptlabel" x="754.6" y="369.9" text-anchor="start">16/26/18 nm</text><circle cx="830.7" cy="413.4" r="4.7" fill="#2a77b5" opacity="0.82"/><text class="ptlabel" x="824.7" y="407.4" text-anchor="end">17/25/18 nm</text><circle cx="927.9" cy="439.5" r="4.7" fill="#2a77b5" opacity="0.82"/><text class="ptlabel" x="921.9" y="433.5" text-anchor="end">18/24/18 nm</text><circle cx="829.1" cy="412.7" r="4.7" fill="#2a77b5" opacity="0.82"/><text class="ptlabel" x="835.1" y="406.7" text-anchor="start">18/25/17 nm</text><circle cx="695.3" cy="374.3" r="4.7" fill="#2a77b5" opacity="0.82"/><text class="ptlabel" x="701.3" y="368.3" text-anchor="start">18/26/16 nm</text><circle cx="600.3" cy="340.3" r="4.7" fill="#2a77b5" opacity="0.82"/><text class="ptlabel" x="606.3" y="334.3" text-anchor="start">18/27/15 nm</text><circle cx="530.0" cy="314.9" r="4.7" fill="#2a77b5" opacity="0.82"/><text class="ptlabel" x="536.0" y="308.9" text-anchor="start">18/28/14 nm</text><circle cx="471.4" cy="291.5" r="4.7" fill="#2a77b5" opacity="0.82"/><text class="ptlabel" x="477.4" y="285.5" text-anchor="start">18/29/13 nm</text><circle cx="389.5" cy="257.4" r="4.7" fill="#2a77b5" opacity="0.82"/><text class="ptlabel" x="395.5" y="251.4" text-anchor="start">18/30/12 nm</text><circle cx="328.3" cy="227.3" r="4.7" fill="#2a77b5" opacity="0.82"/><text class="ptlabel" x="334.3" y="221.3" text-anchor="start">18/31/11 nm</text><circle cx="283.3" cy="204.5" r="4.7" fill="#2a77b5" opacity="0.82"/><text class="ptlabel" x="289.3" y="198.5" text-anchor="start">18/32/10 nm</text><circle cx="1107.8" cy="474.8" r="4.7" fill="#2a77b5" opacity="0.82"/><text class="ptlabel" x="1101.8" y="468.8" text-anchor="end">19/23/18 nm</text><polygon points="306.7521305063064,196.64703657448 315.7521305063064,205.64703657448 306.7521305063064,214.64703657448 297.7521305063064,205.64703657448" fill="#f97316"/>
<text x="318.7521305063064" y="195.64703657448" font-size="16" font-weight="700" fill="#f97316">15/32/13 nm</text><rect x="871.4927875000001" y="636.0495901639345" width="14" height="14" fill="#000"/>
<text x="890.4927875000001" y="648.0495901639345" font-size="16">Single-Metal baseline</text><rect x="935" y="76" width="220" height="102" rx="8" fill="white" stroke="#d1d5db"/>
<circle cx="955" cy="102" r="5" fill="#2a77b5"/><text class="legend" x="973" y="108">46 TLMG geometries</text>
<polygon points="955,123 963,131 955,139 947,131" fill="#f97316"/><text class="legend" x="973" y="137">Nominal 15/32/13 nm</text>
<rect x="949" y="152" width="12" height="12" fill="#000"/><text class="legend" x="973" y="164">Single-Metal baseline</text>
</svg>